<svg width="54" height="54" viewBox="0 0 54 54" fill="none" xmlns="http://www.w3.org/2000/svg">
<g clip-path="url(#clip0_93_125)">
<path d="M27 54C12.0867 54 0 41.9133 0 27C0 12.0867 12.0867 0 27 0C41.9133 0 54 12.0867 54 27C54 41.9133 41.9133 54 27 54ZM34.4777 13.6951C33.5443 13.5633 32.226 13.5 30.5279 13.5C28.5293 13.5 26.9314 14.0537 25.7291 15.1611C24.5268 16.2686 23.9256 17.8295 23.9256 19.8387V23.3719H19.5117V28.1707H23.9309V40.4684H29.2307V28.1602H33.6287L34.3037 23.3666H29.2307V20.3027C29.2307 19.5223 29.4047 18.9422 29.7527 18.552C30.1008 18.167 30.7652 17.9719 31.7566 17.9719H34.4777V13.6951Z" fill="white"/>
</g>
<defs>
<clipPath id="clip0_93_125">
<rect width="54" height="54" fill="white"/>
</clipPath>
</defs>
</svg>
