<svg width="54" height="54" viewBox="0 0 54 54" fill="none" xmlns="http://www.w3.org/2000/svg">
<path d="M28.8274 0.0556641C42.5283 0.0556641 53.7382 11.2655 53.7382 24.9665V28.8586C53.7382 42.5596 42.5283 53.7695 28.8274 53.7695H24.9353C11.2343 53.7695 0.0244141 42.5596 0.0244141 28.8586V24.9665C0.0244141 11.2655 11.2343 0.0556641 24.9353 0.0556641H28.8274ZM27.371 13.5561L27.0244 13.5557C24.1384 13.5557 21.2524 13.6511 21.2524 13.6511C17.037 13.6511 13.6198 17.0683 13.6198 21.2836C13.6198 21.2836 13.5322 23.7617 13.5249 26.4217L13.5244 26.7695C13.5244 29.7477 13.6198 32.8277 13.6198 32.8277C13.6198 37.0431 17.037 40.4603 21.2524 40.4603C21.2524 40.4603 23.9507 40.5557 26.7382 40.5557C29.7164 40.5557 32.8919 40.4603 32.8919 40.4603C37.1073 40.4603 40.429 37.1385 40.429 32.9232C40.429 32.9232 40.5244 29.8778 40.5244 26.9603L40.5227 26.2756C40.5098 23.6581 40.429 21.1881 40.429 21.1881C40.429 16.9728 37.1072 13.6511 32.8919 13.6511C32.8919 13.6511 30.1442 13.5631 27.371 13.5561ZM27.0244 15.9856C29.391 15.9856 32.4254 16.0639 32.4254 16.0639C35.882 16.0639 38.0162 18.198 38.0162 21.6546C38.0162 21.6546 38.0944 24.6372 38.0944 26.9773C38.0944 29.3697 38.0162 32.4565 38.0162 32.4565C38.0162 35.9131 35.882 38.0473 32.4254 38.0473C32.4254 38.0473 29.7419 38.1131 27.4136 38.124L26.7897 38.1255C24.504 38.1255 21.7189 38.0473 21.7189 38.0473C18.2623 38.0473 16.0327 35.8176 16.0327 32.3611C16.0327 32.3611 15.9544 29.263 15.9544 26.8209C15.9544 24.5351 16.0327 21.6546 16.0327 21.6546C16.0327 18.198 18.2624 16.0639 21.7189 16.0639C21.7189 16.0639 24.6578 15.9856 27.0244 15.9856ZM27.0244 20.1401C23.205 20.1401 20.1089 23.2363 20.1089 27.0556C20.1089 30.8749 23.205 33.971 27.0244 33.971C30.8437 33.971 33.9398 30.8749 33.9398 27.0556C33.9398 23.2363 30.8437 20.1401 27.0244 20.1401ZM27.0244 22.5556C29.5097 22.5556 31.5244 24.5703 31.5244 27.0556C31.5244 29.5409 29.5097 31.5556 27.0244 31.5556C24.5391 31.5556 22.5243 29.5409 22.5243 27.0556C22.5243 24.5703 24.539 22.5556 27.0244 22.5556ZM34.2707 18.2211C33.3479 18.2211 32.5997 18.9729 32.5997 19.9003C32.5997 20.8277 33.3479 21.5795 34.2707 21.5795C35.1935 21.5795 35.9416 20.8277 35.9416 19.9003C35.9416 18.9728 35.1935 18.2211 34.2707 18.2211Z" fill="white"/>
</svg>
