<svg width="54" height="54" viewBox="0 0 54 54" fill="none" xmlns="http://www.w3.org/2000/svg">
<circle cx="27" cy="27" r="27" fill="white"/>
<path d="M28.1488 21.6494H23.8828V37.0787H28.301V30.0096C28.301 28.1343 28.6544 26.3327 30.9666 26.3327C33.2788 26.3327 33.2837 28.4632 33.2837 30.1274V37.0787H37.7019V29.1898C37.7019 25.3803 36.8919 21.8654 32.3952 21.8654C30.7359 21.8016 29.1306 22.106 28.2372 23.4609C28.2321 23.473 28.2226 23.4829 28.2107 23.4886C28.1988 23.4943 28.1853 23.4954 28.1726 23.4918C28.1599 23.4882 28.149 23.48 28.1419 23.4689C28.1348 23.4578 28.132 23.4444 28.1341 23.4314L28.1488 21.6494Z" fill="#FB2B30"/>
<path d="M16.6514 21.6494H21.1088V37.0787H16.6514V21.6494Z" fill="#FB2B30"/>
<path d="M18.8703 13.9766C18.3587 13.9746 17.8579 14.1245 17.4314 14.4071C17.0049 14.6898 16.6717 15.0926 16.4741 15.5646C16.2765 16.0365 16.2233 16.5565 16.3213 17.0587C16.4192 17.561 16.6638 18.0229 17.0243 18.386C17.3847 18.7492 17.8447 18.9974 18.3462 19.0991C18.8476 19.2008 19.368 19.1516 19.8415 18.9576C20.3149 18.7635 20.7203 18.4335 21.0061 18.0091C21.292 17.5848 21.4457 17.0852 21.4476 16.5735C21.4502 16.2334 21.3854 15.8961 21.2571 15.5812C21.1287 15.2662 20.9393 14.9798 20.6997 14.7384C20.4601 14.497 20.1751 14.3054 19.8612 14.1746C19.5472 14.0439 19.2104 13.9766 18.8703 13.9766Z" fill="#FB2B30"/>
</svg>
