<svg width="160" height="147" viewBox="0 0 160 147" fill="none" xmlns="http://www.w3.org/2000/svg">
<path d="M44.7939 100.932H36.3672L54.0916 75.6165C54.9894 74.3344 56.5361 73.5585 58.1953 73.5585H67.2161L48.8576 98.9296C47.9524 100.179 46.4279 100.93 44.7939 100.93V100.932Z" fill="white"/>
<path d="M102.649 45.5183H93.1572C91.5128 45.5183 89.9779 46.2791 89.0757 47.5436L76.5676 65.0734L64.0639 47.5504C63.1602 46.2832 61.6194 45.521 59.9691 45.5251L50.5068 45.5482L70.5024 73.5721L50.9987 100.906L60.4639 100.926C62.1128 100.93 63.652 100.168 64.5557 98.9011L76.5646 82.0696L88.5779 98.9065C89.4802 100.171 91.0135 100.932 92.6594 100.932H102.151L82.6298 73.5721L102.646 45.5183H102.649Z" fill="#ED1F24"/>
<path d="M123.632 30.0343L107.788 37.5571L110.988 39.4423L87.0381 73.5748H95.4588C97.0929 73.5748 98.6203 72.8222 99.524 71.5713L119.235 44.3014L122.803 46.403L123.634 30.0343H123.632Z" fill="white"/>
<path opacity="0.27" d="M76.5689 82.0695L51.1289 100.932L59.8104 100.951C61.7956 101.016 63.5185 100.382 64.56 98.901L76.5689 82.0695Z" fill="#F7941D"/>
</svg>
